<svg width="32" height="30" viewBox="0 0 32 30" fill="none" xmlns="http://www.w3.org/2000/svg">
<path d="M2.90909 29.0909C2.10909 29.0909 1.42424 28.8061 0.854546 28.2364C0.284849 27.6667 0 26.9818 0 26.1818V8.72727C0 7.92727 0.284849 7.24242 0.854546 6.67273C1.42424 6.10303 2.10909 5.81818 2.90909 5.81818H7.49091L10.1818 2.90909H18.9091V5.81818H11.4545L8.8 8.72727H2.90909V26.1818H26.1818V13.0909H29.0909V26.1818C29.0909 26.9818 28.8061 27.6667 28.2364 28.2364C27.6667 28.8061 26.9818 29.0909 26.1818 29.0909H2.90909ZM26.1818 8.72727V5.81818H23.2727V2.90909H26.1818V0H29.0909V2.90909H32V5.81818H29.0909V8.72727H26.1818ZM14.5455 24C16.3636 24 17.9091 23.3636 19.1818 22.0909C20.4545 20.8182 21.0909 19.2727 21.0909 17.4545C21.0909 15.6364 20.4545 14.0909 19.1818 12.8182C17.9091 11.5455 16.3636 10.9091 14.5455 10.9091C12.7273 10.9091 11.1818 11.5455 9.90909 12.8182C8.63636 14.0909 8 15.6364 8 17.4545C8 19.2727 8.63636 20.8182 9.90909 22.0909C11.1818 23.3636 12.7273 24 14.5455 24ZM14.5455 21.0909C13.5273 21.0909 12.6667 20.7394 11.9636 20.0364C11.2606 19.3333 10.9091 18.4727 10.9091 17.4545C10.9091 16.4364 11.2606 15.5758 11.9636 14.8727C12.6667 14.1697 13.5273 13.8182 14.5455 13.8182C15.5636 13.8182 16.4242 14.1697 17.1273 14.8727C17.8303 15.5758 18.1818 16.4364 18.1818 17.4545C18.1818 18.4727 17.8303 19.3333 17.1273 20.0364C16.4242 20.7394 15.5636 21.0909 14.5455 21.0909Z" fill="#05003A"/>
</svg>
